# xmcd CD database file
#
# Track frame offsets:
#	150
#	18796
#	36986
#	55959
#	74438
#	91975
#	110190
#	129351
#	147981
#
# Disc length: 2197 seconds
#
# Revision: 0
# Processed by: cddbd v1.5PL3 Copyright (c) Steve Scherf et al.
# Submitted via: CDex 1.51
#
DISCID=7f089309
DTITLE=El Boy from Bonao - Pa Ti Papa
DYEAR=1900
DGENRE=Merengue
TTITLE0=Ta De Risa
TTITLE1=La Coja
TTITLE2=La Multa
TTITLE3=El Kiss
TTITLE4=Tengo Una Molestia
TTITLE5=El Brechero
TTITLE6=Pa Ti Papa
TTITLE7=Ta De Pinga
TTITLE8=Esta Navidad
EXTD=
EXTT0=
EXTT1=
EXTT2=
EXTT3=
EXTT4=
EXTT5=
EXTT6=
EXTT7=
EXTT8=
PLAYORDER=
